<?xml version="1.0" encoding="UTF-8"?>
<svg id="Layer_1" xmlns="http://www.w3.org/2000/svg" version="1.1" viewBox="0 0 297 108">
  <!-- Generator: Adobe Illustrator 29.5.1, SVG Export Plug-In . SVG Version: 2.1.0 Build 141)  -->
  <defs>
    <style>
      .st0 {
        fill: #fbc24f;
      }

      .st1 {
        fill: #1f336b;
      }
    </style>
  </defs>
  <g>
    <polygon class="st0" points="14.8 26.5 59.6 26.5 59.6 71.3 14.8 26.5"/>
    <polygon class="st1" points="4.5 36.7 49.3 36.7 49.3 81.5 4.5 36.7"/>
  </g>
  <g>
    <g>
      <path class="st1" d="M101.7,52c7.2,0,12.2-5.3,12.2-13s-5-13-12.2-13-12.2,5.3-12.2,13,5,13,12.1,13ZM94.5,39c0-5.1,2.8-8.4,7.3-8.4s7.3,3.3,7.3,8.4-2.8,8.4-7.3,8.4-7.3-3.3-7.3-8.4Z"/>
      <rect class="st1" x="117.4" y="26.5" width="4.7" height="25.1"/>
      <polygon class="st1" points="130.3 34.5 141.6 51.5 141.7 51.6 146.2 51.6 146.2 26.5 141.6 26.5 141.6 43.6 130.3 26.6 130.3 26.5 125.7 26.5 125.7 51.6 130.3 51.6 130.3 34.5"/>
      <polygon class="st1" points="155.9 51.6 160.6 51.6 160.6 30.9 167.8 30.9 167.8 26.5 148.7 26.5 148.7 30.9 155.9 30.9 155.9 51.6"/>
      <path class="st1" d="M76.3,52c-2.4,0-4.4-.6-6-1.9-1.6-1.3-2.8-3.1-3.5-5.5l4.5-1.9c.5,1.5,1.2,2.7,2,3.4.8.7,1.9,1.1,3.1,1.1s2.6-.5,3.5-1.5c.9-1,1.3-2.4,1.3-4.1v-15.1h4.9v15.2c0,2.1-.4,3.9-1.2,5.4-.8,1.5-1.9,2.7-3.4,3.6-1.5.9-3.2,1.3-5.1,1.3Z"/>
    </g>
    <g>
      <g>
        <path class="st1" d="M101.7,56c-7.2,0-12.2,5.3-12.2,13s5,13,12.1,13,12.2-5.3,12.2-13-5-13-12.2-13ZM109,68.9c0,5.1-2.8,8.4-7.3,8.4s-7.3-3.3-7.3-8.4,2.8-8.4,7.3-8.4,7.3,3.3,7.3,8.4Z"/>
        <path class="st1" d="M129.8,75.8l-7.8-19.3h0c0-.1-4.5-.1-4.5-.1v25.1h4.6v-9c0-2.4,0-4.2-.1-5.5l5.7,14.5h0c0,.1,4.2.1,4.2.1l5.8-14.7c0,1.4,0,3.2,0,6.9v7.8h4.6v-25.1h-4.6l-7.9,19.4Z"/>
        <path class="st1" d="M158.3,75.8l-7.8-19.3h0c0-.1-4.5-.1-4.5-.1v25.1h4.6v-9c0-2.4,0-4.2-.1-5.5l5.7,14.5h0c0,.1,4.2.1,4.2.1l5.8-14.7c0,1.4,0,3.2,0,6.9v7.8h4.6v-25.1h-4.6l-7.9,19.4Z"/>
        <rect class="st1" x="174.3" y="56.4" width="4.7" height="25.1"/>
        <path class="st1" d="M194.1,67.2l-3.9-.8c-2-.5-2.9-1.4-2.9-3s1.6-3.2,4.2-3.2,3.8,1.2,3.9,3.2v.2h4.7v-.2c-.1-4.6-3.4-7.4-8.5-7.4s-9,3.1-9,7.5,2.3,6.4,6.5,7.3l3.9.9c1.9.4,2.7,1.3,2.7,2.9s-1.7,3.1-4.5,3.1-4.3-1.2-4.3-3.2v-.2h-4.7v.2c.1,4.5,3.6,7.4,9,7.4s9.2-3,9.2-7.8-2.1-6-6.4-6.9Z"/>
        <path class="st1" d="M214.4,67.2l-3.9-.8c-2-.5-2.9-1.4-2.9-3s1.6-3.2,4.2-3.2,3.8,1.2,3.9,3.2v.2h4.7v-.2c-.1-4.6-3.4-7.4-8.5-7.4s-9,3.1-9,7.5,2.3,6.4,6.5,7.3l3.9.9c1.9.4,2.7,1.3,2.7,2.9s-1.7,3.1-4.5,3.1-4.3-1.2-4.3-3.2v-.2h-4.7v.2c.1,4.5,3.6,7.4,9,7.4s9.2-3,9.2-7.8-2.1-6-6.4-6.9Z"/>
        <rect class="st1" x="224.1" y="56.4" width="4.7" height="25.1"/>
        <path class="st1" d="M244.5,56c-7.2,0-12.2,5.3-12.2,13s5,13,12.1,13,12.2-5.3,12.2-13-5-13-12.2-13ZM251.8,68.9c0,5.1-2.8,8.4-7.3,8.4s-7.3-3.3-7.3-8.4,2.8-8.4,7.3-8.4,7.3,3.3,7.3,8.4Z"/>
        <polygon class="st1" points="276.1 56.4 276.1 73.5 264.8 56.5 264.8 56.4 260.2 56.4 260.2 81.5 264.8 81.5 264.8 64.4 276.1 81.4 276.2 81.5 280.7 81.5 280.7 56.4 276.1 56.4"/>
        <path class="st1" d="M78.3,81.9c-1.8,0-3.4-.3-4.9-1-1.5-.7-2.9-1.6-4-2.8-1.1-1.2-2-2.6-2.7-4.2-.6-1.6-1-3.3-1-5.2s.3-3.6,1-5.2c.6-1.6,1.5-3,2.7-4.2,1.1-1.2,2.5-2.1,4-2.8,1.5-.7,3.1-1,4.9-1s2.6.2,3.8.6c1.2.4,2.3.9,3.4,1.6,1,.7,1.9,1.6,2.7,2.6l-3.3,3.5c-.9-1.1-1.8-2-2.9-2.6-1.1-.6-2.3-.9-3.6-.9s-2,.2-3,.6c-.9.4-1.7,1-2.4,1.8s-1.2,1.6-1.6,2.6c-.4,1-.6,2.1-.6,3.3s.2,2.3.6,3.2c.4,1,.9,1.9,1.6,2.6.7.8,1.5,1.3,2.4,1.8.9.4,2,.6,3,.6s2.4-.3,3.5-.8c1.1-.6,2-1.4,2.8-2.4l3.2,3.4c-.7,1-1.6,1.8-2.7,2.5-1,.7-2.1,1.2-3.4,1.6-1.2.4-2.4.6-3.7.6Z"/>
      </g>
      <g>
        <path class="st1" d="M283,56.4h3.7v.5h-1.6v4.7h-.5v-4.7h-1.6v-.5Z"/>
        <path class="st1" d="M287.7,61.6v-5.2h.5l1.9,4.6,1.9-4.6h.5v5.2h-.5v-2.5c0-.9,0-1.3,0-1.7l-1.7,4.1h-.5l-1.7-4.1c0,.2,0,.8,0,1.6v2.6h-.5Z"/>
      </g>
    </g>
  </g>
</svg>